<svg width="20" height="21" viewBox="0 0 20 21" fill="none" xmlns="http://www.w3.org/2000/svg">
<path d="M1.66663 3.47302C1.66663 3.00631 1.66663 2.77295 1.75745 2.59469C1.83735 2.43789 1.96483 2.31041 2.12163 2.23051C2.29989 2.13969 2.53325 2.13969 2.99996 2.13969H6.99996C7.46667 2.13969 7.70002 2.13969 7.87828 2.23051C8.03509 2.31041 8.16257 2.43789 8.24246 2.59469C8.33329 2.77295 8.33329 3.00631 8.33329 3.47302V7.47302C8.33329 7.93973 8.33329 8.17308 8.24246 8.35134C8.16257 8.50815 8.03509 8.63563 7.87828 8.71552C7.70002 8.80635 7.46667 8.80635 6.99996 8.80635H2.99996C2.53325 8.80635 2.29989 8.80635 2.12163 8.71552C1.96483 8.63563 1.83735 8.50815 1.75745 8.35134C1.66663 8.17308 1.66663 7.93973 1.66663 7.47302V3.47302Z" stroke="white" stroke-width="1.5"/>
<path d="M1.66663 13.473C1.66663 13.0063 1.66663 12.773 1.75745 12.5947C1.83735 12.4379 1.96483 12.3104 2.12163 12.2305C2.29989 12.1397 2.53325 12.1397 2.99996 12.1397H6.99996C7.46667 12.1397 7.70002 12.1397 7.87828 12.2305C8.03509 12.3104 8.16257 12.4379 8.24246 12.5947C8.33329 12.773 8.33329 13.0063 8.33329 13.473V17.473C8.33329 17.9397 8.33329 18.1731 8.24246 18.3513C8.16257 18.5081 8.03509 18.6356 7.87828 18.7155C7.70002 18.8064 7.46667 18.8064 6.99996 18.8064H2.99996C2.53325 18.8064 2.29989 18.8064 2.12163 18.7155C1.96483 18.6356 1.83735 18.5081 1.75745 18.3513C1.66663 18.1731 1.66663 17.9397 1.66663 17.473V13.473Z" stroke="white" stroke-width="1.5"/>
<path d="M11.6666 3.47302C11.6666 3.00631 11.6666 2.77295 11.7575 2.59469C11.8373 2.43789 11.9648 2.31041 12.1216 2.23051C12.2999 2.13969 12.5332 2.13969 13 2.13969H17C17.4667 2.13969 17.7 2.13969 17.8783 2.23051C18.0351 2.31041 18.1626 2.43789 18.2425 2.59469C18.3333 2.77295 18.3333 3.00631 18.3333 3.47302V7.47302C18.3333 7.93973 18.3333 8.17308 18.2425 8.35134C18.1626 8.50815 18.0351 8.63563 17.8783 8.71552C17.7 8.80635 17.4667 8.80635 17 8.80635H13C12.5332 8.80635 12.2999 8.80635 12.1216 8.71552C11.9648 8.63563 11.8373 8.50815 11.7575 8.35134C11.6666 8.17308 11.6666 7.93973 11.6666 7.47302V3.47302Z" stroke="white" stroke-width="1.5"/>
<path d="M11.6666 13.473C11.6666 13.0063 11.6666 12.773 11.7575 12.5947C11.8373 12.4379 11.9648 12.3104 12.1216 12.2305C12.2999 12.1397 12.5332 12.1397 13 12.1397H17C17.4667 12.1397 17.7 12.1397 17.8783 12.2305C18.0351 12.3104 18.1626 12.4379 18.2425 12.5947C18.3333 12.773 18.3333 13.0063 18.3333 13.473V17.473C18.3333 17.9397 18.3333 18.1731 18.2425 18.3513C18.1626 18.5081 18.0351 18.6356 17.8783 18.7155C17.7 18.8064 17.4667 18.8064 17 18.8064H13C12.5332 18.8064 12.2999 18.8064 12.1216 18.7155C11.9648 18.6356 11.8373 18.5081 11.7575 18.3513C11.6666 18.1731 11.6666 17.9397 11.6666 17.473V13.473Z" stroke="white" stroke-width="1.5"/>
</svg>
