<svg width="21" height="21" viewBox="0 0 21 21" fill="none" xmlns="http://www.w3.org/2000/svg">
<g clip-path="url(#clip0_1_882)">
<path d="M9.73963 11.9506L8.80795 12.8823L9.73764 14.7417L10.6524 13.7761L9.73963 11.9506ZM10.3325 15.9313L11.2035 17.6735L12.1183 16.7079L11.2472 14.9658L10.3325 15.9313ZM17.4789 8.38788L16.5755 9.34147L18.3108 10.1714L19.2142 9.2178L17.4789 8.38788ZM13.7163 7.97397L15.3905 8.77471L16.2939 7.82116L14.6536 7.03663L13.7163 7.97397ZM12.3562 13.7951L13.4704 15.2807L14.3424 14.3602L13.2283 12.8746L12.3562 13.7951ZM12.4674 11.8602L11.3371 10.3531L10.4443 11.246L11.5954 12.7807L12.4674 11.8602ZM12.0811 9.60913L13.514 10.7555L14.3767 9.84483L12.9705 8.71979L12.0811 9.60913ZM14.4935 11.5391L15.928 12.6866L16.7906 11.776L15.3562 10.6285L14.4935 11.5391ZM13.9539 4.40612L12.9289 5.43108L11.9634 4.46553C11.5585 4.0607 11.0779 3.73956 10.549 3.52046C10.02 3.30137 9.45312 3.1886 8.88059 3.1886C8.30806 3.1886 7.74114 3.30137 7.21219 3.52046C6.68325 3.73956 6.20263 4.0607 5.7978 4.46553C5.78444 4.47885 5.77151 4.49245 5.75838 4.50592C5.30225 4.18458 4.76661 3.99471 4.20993 3.95702C3.65324 3.91934 3.0969 4.03529 2.60162 4.29222C2.10634 4.54915 1.69115 4.9372 1.40137 5.414C1.11158 5.8908 0.95833 6.43804 0.958344 6.996V16.4105H2.20834V6.996C2.20834 6.66866 2.2978 6.34753 2.46706 6.06735C2.63632 5.78716 2.87895 5.55856 3.16871 5.40626C3.45847 5.25397 3.78434 5.18376 4.11111 5.20324C4.43788 5.22272 4.7531 5.33114 5.02272 5.51678C4.59027 6.34066 4.43224 7.28111 4.57165 8.20108C4.71107 9.12105 5.14066 9.97245 5.7978 10.6312L6.7633 11.5967L5.82893 12.5311L6.61018 13.3124L14.7352 5.18737L13.9539 4.40612ZM7.56014 10.6258L6.68166 9.74733C6.10413 9.16297 5.78131 8.37381 5.78372 7.55222C5.78613 6.73062 6.11356 5.94337 6.69451 5.3624C7.27545 4.78144 8.0627 4.45397 8.88429 4.45154C9.70588 4.4491 10.4951 4.77189 11.0794 5.3494L11.9579 6.22792L7.56014 10.6258Z" fill="black"/>
</g>
<defs>
<clipPath id="clip0_1_882">
<rect width="20" height="20" fill="white" transform="translate(0.333344 0.473022)"/>
</clipPath>
</defs>
</svg>
