<svg width="21" height="21" viewBox="0 0 21 21" fill="none" xmlns="http://www.w3.org/2000/svg">
<g clip-path="url(#clip0_1_890)">
<path d="M3.65835 8.16719H8.66502C9.10749 8.16719 9.53184 8.34296 9.84471 8.65583C10.1576 8.96871 10.3334 9.39305 10.3334 9.83552V18.1797C10.3334 18.6222 10.1576 19.0465 9.84471 19.3594C9.53184 19.6723 9.10749 19.848 8.66502 19.848H3.65835C2.73669 19.848 1.99002 19.1014 1.99002 18.1797V9.83552C1.99002 9.39305 2.16579 8.96871 2.47866 8.65583C2.79154 8.34296 3.21588 8.16719 3.65835 8.16719ZM3.65835 8.16719H8.66669V6.31052C8.66658 6.22553 8.64972 6.14139 8.61706 6.06292C8.58441 5.98445 8.53661 5.91319 8.4764 5.85321C8.41618 5.79323 8.34474 5.7457 8.26614 5.71336C8.18755 5.68101 8.10335 5.66447 8.01835 5.66469H4.30502C4.13366 5.66469 3.9693 5.73271 3.84805 5.8538C3.7268 5.97489 3.65857 6.13916 3.65835 6.31052V8.16719ZM12 2.76636L11.6275 2.02052C11.4893 1.74344 11.2765 1.51035 11.0132 1.34741C10.7499 1.18447 10.4464 1.09811 10.1367 1.09802H2.82419M6.16169 12.3389V15.6764M4.49335 14.008H7.83002M6.16169 1.09802V5.66469M18.6767 12.7564C18.6767 13.5308 18.369 14.2735 17.8214 14.8211C17.2738 15.3687 16.5311 15.6764 15.7567 15.6764C14.9823 15.6764 14.2395 15.3687 13.6919 14.8211C13.1443 14.2735 12.8367 13.5308 12.8367 12.7564C12.8367 10.5664 15.7534 6.91552 15.7534 6.91552C15.7534 6.91552 18.6767 10.5664 18.6767 12.7564Z" stroke="#171E1D" stroke-width="1.5" stroke-linecap="round" stroke-linejoin="round"/>
</g>
<defs>
<clipPath id="clip0_1_890">
<rect width="20" height="20" fill="white" transform="translate(0.333344 0.473022)"/>
</clipPath>
</defs>
</svg>
