<svg width="47" height="47" viewBox="0 0 47 47" fill="none" xmlns="http://www.w3.org/2000/svg">
<g filter="url(#filter0_d_1_1069)">
<circle cx="23.7874" cy="23.473" r="15" fill="white"/>
<path fill-rule="evenodd" clip-rule="evenodd" d="M23.7828 19.4114C22.4055 17.8063 20.1088 17.3745 18.3831 18.8443C16.6575 20.3141 16.4145 22.7715 17.7697 24.5098C18.8964 25.9551 22.3063 29.0033 23.4239 29.9899C23.5489 30.1003 23.6114 30.1554 23.6844 30.1771C23.748 30.1961 23.8177 30.1961 23.8813 30.1771C23.9542 30.1554 24.0167 30.1003 24.1418 29.9899C25.2593 29.0033 28.6692 25.9551 29.796 24.5098C31.1511 22.7715 30.9379 20.2986 29.1825 18.8443C27.4272 17.39 25.1601 17.8063 23.7828 19.4114Z" stroke="#171E1D" stroke-width="1.5" stroke-linecap="round" stroke-linejoin="round"/>
</g>
<defs>
<filter id="filter0_d_1_1069" x="0.787445" y="0.473022" width="46" height="46" filterUnits="userSpaceOnUse" color-interpolation-filters="sRGB">
<feFlood flood-opacity="0" result="BackgroundImageFix"/>
<feColorMatrix in="SourceAlpha" type="matrix" values="0 0 0 0 0 0 0 0 0 0 0 0 0 0 0 0 0 0 127 0" result="hardAlpha"/>
<feOffset/>
<feGaussianBlur stdDeviation="4"/>
<feComposite in2="hardAlpha" operator="out"/>
<feColorMatrix type="matrix" values="0 0 0 0 0 0 0 0 0 0 0 0 0 0 0 0 0 0 0.08 0"/>
<feBlend mode="normal" in2="BackgroundImageFix" result="effect1_dropShadow_1_1069"/>
<feBlend mode="normal" in="SourceGraphic" in2="effect1_dropShadow_1_1069" result="shape"/>
</filter>
</defs>
</svg>
