<svg width="19" height="20" viewBox="0 0 19 20" fill="none" xmlns="http://www.w3.org/2000/svg">
<g clip-path="url(#clip0_1_312)">
<path d="M16.434 19.1747C16.9221 19.6629 17.7136 19.6629 18.2017 19.1747C18.6899 18.6865 18.6899 17.8951 18.2017 17.4069L16.434 19.1747ZM13.3086 9.09341C13.3086 11.9588 10.9858 14.2816 8.12043 14.2816V16.7816C12.3665 16.7816 15.8086 13.3395 15.8086 9.09341H13.3086ZM8.12043 14.2816C5.25508 14.2816 2.93225 11.9588 2.93225 9.09341H0.432251C0.432251 13.3395 3.87437 16.7816 8.12043 16.7816V14.2816ZM2.93225 9.09341C2.93225 6.22806 5.25508 3.90523 8.12043 3.90523V1.40523C3.87437 1.40523 0.432251 4.84735 0.432251 9.09341H2.93225ZM8.12043 3.90523C10.9858 3.90523 13.3086 6.22806 13.3086 9.09341H15.8086C15.8086 4.84735 12.3665 1.40523 8.12043 1.40523V3.90523ZM11.8353 14.576L16.434 19.1747L18.2017 17.4069L13.603 12.8082L11.8353 14.576Z" fill="white"/>
</g>
<defs>
<clipPath id="clip0_1_312">
<rect width="19" height="19" fill="white" transform="translate(0 0.973022)"/>
</clipPath>
</defs>
</svg>
