<svg width="21" height="21" viewBox="0 0 21 21" fill="none" xmlns="http://www.w3.org/2000/svg">
<path d="M19.3571 17.2657C18.8831 16.143 18.1953 15.1232 17.3319 14.2632C16.4712 13.4006 15.4516 12.7129 14.3294 12.2381C14.3194 12.233 14.3093 12.2305 14.2993 12.2255C15.8646 11.0948 16.8822 9.25314 16.8822 7.17525C16.8822 3.73304 14.0932 0.944092 10.651 0.944092C7.20882 0.944092 4.41988 3.73304 4.41988 7.17525C4.41988 9.25314 5.43747 11.0948 7.00279 12.228C6.99274 12.233 6.98269 12.2355 6.97264 12.2406C5.84701 12.7154 4.83696 13.3964 3.97013 14.2657C3.10759 15.1264 2.41989 16.146 1.945 17.2682C1.47848 18.3668 1.22687 19.5447 1.2038 20.7381C1.20313 20.7649 1.20783 20.7916 1.21763 20.8165C1.22743 20.8415 1.24213 20.8643 1.26086 20.8835C1.2796 20.9027 1.30198 20.9179 1.3267 20.9283C1.35142 20.9387 1.37798 20.9441 1.4048 20.9441H2.91234C3.02289 20.9441 3.11083 20.8562 3.11335 20.7481C3.1636 18.8084 3.94249 16.9918 5.31938 15.6149C6.744 14.1903 8.63596 13.4064 10.651 13.4064C12.6661 13.4064 14.5581 14.1903 15.9827 15.6149C17.3596 16.9918 18.1385 18.8084 18.1887 20.7481C18.1912 20.8587 18.2792 20.9441 18.3897 20.9441H19.8973C19.9241 20.9441 19.9506 20.9387 19.9754 20.9283C20.0001 20.9179 20.0225 20.9027 20.0412 20.8835C20.0599 20.8643 20.0746 20.8415 20.0844 20.8165C20.0942 20.7916 20.0989 20.7649 20.0983 20.7381C20.0731 19.5371 19.8244 18.3687 19.3571 17.2657ZM10.651 11.4969C9.49777 11.4969 8.41234 11.0471 7.59576 10.2305C6.77917 9.41394 6.32943 8.32851 6.32943 7.17525C6.32943 6.02198 6.77917 4.93655 7.59576 4.11997C8.41234 3.30339 9.49777 2.85364 10.651 2.85364C11.8043 2.85364 12.8897 3.30339 13.7063 4.11997C14.5229 4.93655 14.9726 6.02198 14.9726 7.17525C14.9726 8.32851 14.5229 9.41394 13.7063 10.2305C12.8897 11.0471 11.8043 11.4969 10.651 11.4969Z" fill="#787878"/>
</svg>
