<svg width="21" height="21" viewBox="0 0 21 21" fill="none" xmlns="http://www.w3.org/2000/svg">
<path d="M10.651 0.603561C7.91363 0.603561 5.68662 2.83057 5.68662 5.56791V8.54652H4.69375C3.59861 8.54652 2.70801 9.43713 2.70801 10.5323V18.4752C2.70801 19.5704 3.59861 20.461 4.69375 20.461H16.6082C17.7033 20.461 18.5939 19.5704 18.5939 18.4752V10.5323C18.5939 9.43713 17.7033 8.54652 16.6082 8.54652H15.6153V5.56791C15.6153 2.83057 13.3883 0.603561 10.651 0.603561ZM16.6082 10.5323L16.6102 18.4752H4.69375V10.5323H16.6082ZM7.67236 8.54652V5.56791C7.67236 3.92571 9.00876 2.5893 10.651 2.5893C12.2932 2.5893 13.6296 3.92571 13.6296 5.56791V8.54652H7.67236Z" fill="#787878"/>
</svg>
