<svg width="21" height="21" viewBox="0 0 21 21" fill="none" xmlns="http://www.w3.org/2000/svg">
<path d="M19.3571 16.4389C18.8831 15.3162 18.1953 14.2965 17.3319 13.4364C16.4712 12.5739 15.4516 11.8862 14.3294 11.4113C14.3194 11.4063 14.3093 11.4037 14.2993 11.3987C15.8646 10.2681 16.8822 8.42635 16.8822 6.34847C16.8822 2.90625 14.0932 0.11731 10.651 0.11731C7.20882 0.11731 4.41988 2.90625 4.41988 6.34847C4.41988 8.42635 5.43747 10.2681 7.00279 11.4012C6.99274 11.4063 6.98269 11.4088 6.97264 11.4138C5.84701 11.8887 4.83696 12.5696 3.97013 13.4389C3.10759 14.2996 2.41989 15.3192 1.945 16.4414C1.47848 17.5401 1.22687 18.7179 1.2038 19.9113C1.20313 19.9381 1.20783 19.9648 1.21763 19.9897C1.22743 20.0147 1.24213 20.0375 1.26086 20.0567C1.2796 20.0759 1.30198 20.0911 1.3267 20.1015C1.35142 20.112 1.37798 20.1173 1.4048 20.1173H2.91234C3.02289 20.1173 3.11083 20.0294 3.11335 19.9213C3.1636 17.9816 3.94249 16.165 5.31938 14.7882C6.744 13.3635 8.63596 12.5796 10.651 12.5796C12.6661 12.5796 14.5581 13.3635 15.9827 14.7882C17.3596 16.165 18.1385 17.9816 18.1887 19.9213C18.1912 20.0319 18.2792 20.1173 18.3897 20.1173H19.8973C19.9241 20.1173 19.9506 20.112 19.9754 20.1015C20.0001 20.0911 20.0225 20.0759 20.0412 20.0567C20.0599 20.0375 20.0746 20.0147 20.0844 19.9897C20.0942 19.9648 20.0989 19.9381 20.0983 19.9113C20.0731 18.7103 19.8244 17.5419 19.3571 16.4389ZM10.651 10.6701C9.49777 10.6701 8.41234 10.2203 7.59576 9.40374C6.77917 8.58716 6.32943 7.50173 6.32943 6.34847C6.32943 5.1952 6.77917 4.10977 7.59576 3.29319C8.41234 2.47661 9.49777 2.02686 10.651 2.02686C11.8043 2.02686 12.8897 2.47661 13.7063 3.29319C14.5229 4.10977 14.9726 5.1952 14.9726 6.34847C14.9726 7.50173 14.5229 8.58716 13.7063 9.40374C12.8897 10.2203 11.8043 10.6701 10.651 10.6701Z" fill="#787878"/>
</svg>
