<svg width="21" height="21" viewBox="0 0 21 21" fill="none" xmlns="http://www.w3.org/2000/svg">
<path d="M10.651 0.896088C7.91363 0.896088 5.68662 3.1231 5.68662 5.86044V8.83905H4.69375C3.59861 8.83905 2.70801 9.72966 2.70801 10.8248V18.7678C2.70801 19.8629 3.59861 20.7535 4.69375 20.7535H16.6082C17.7033 20.7535 18.5939 19.8629 18.5939 18.7678V10.8248C18.5939 9.72966 17.7033 8.83905 16.6082 8.83905H15.6153V5.86044C15.6153 3.1231 13.3883 0.896088 10.651 0.896088ZM16.6082 10.8248L16.6102 18.7678H4.69375V10.8248H16.6082ZM7.67236 8.83905V5.86044C7.67236 4.21823 9.00876 2.88183 10.651 2.88183C12.2932 2.88183 13.6296 4.21823 13.6296 5.86044V8.83905H7.67236Z" fill="#787878"/>
</svg>
