<svg width="20" height="21" viewBox="0 0 20 21" fill="none" xmlns="http://www.w3.org/2000/svg">
<path d="M7.5 7.13969V11.3064M12.5 9.63969V13.8064M3.86682 16.8339L6.43303 14.6954C7.0511 14.1804 7.9489 14.1804 8.56697 14.6954L11.433 17.0838C12.0511 17.5989 12.9489 17.5989 13.567 17.0838L16.9003 14.306C17.2803 13.9894 17.5 13.5203 17.5 13.0256V4.75214C17.5 4.04561 16.676 3.65964 16.1332 4.11196L13.567 6.25046C12.9489 6.76552 12.0511 6.76552 11.433 6.25046L8.56697 3.86208C7.9489 3.34702 7.0511 3.34702 6.43303 3.86208L3.09969 6.63986C2.7197 6.95652 2.5 7.4256 2.5 7.92023V16.1937C2.5 16.9003 3.32405 17.2862 3.86682 16.8339Z" stroke="#171E1D" stroke-width="1.5" stroke-linecap="round"/>
</svg>
