<svg width="21" height="21" viewBox="0 0 21 21" fill="none" xmlns="http://www.w3.org/2000/svg">
<path d="M5.66662 18.8064C5.20829 18.8064 4.81579 18.643 4.48912 18.3164C4.16246 17.9897 3.9994 17.5975 3.99996 17.1397V3.80638C3.99996 3.34804 4.16329 2.95554 4.48996 2.62888C4.81662 2.30221 5.20884 2.13916 5.66662 2.13971H17.3333V3.80638H15.6666V5.47304C15.6666 5.70916 15.5866 5.90721 15.4266 6.06721C15.2666 6.22721 15.0688 6.30693 14.8333 6.30638H8.16662C7.93051 6.30638 7.73246 6.22638 7.57246 6.06638C7.41246 5.90638 7.33273 5.7086 7.33329 5.47304V3.80638H5.66662V17.1397H9.04162C8.51384 16.7647 8.09718 16.2889 7.79162 15.7122C7.48607 15.1355 7.33329 14.5003 7.33329 13.8064V9.63971H15.6666V13.8064C15.6666 14.5008 15.5138 15.1364 15.2083 15.713C14.9027 16.2897 14.4861 16.7653 13.9583 17.1397H17.3333V18.8064H5.66662ZM11.5 16.3064C12.1944 16.3064 12.7847 16.0633 13.2708 15.5772C13.7569 15.0911 14 14.5008 14 13.8064V11.3064H8.99996V13.8064C8.99996 14.5008 9.24301 15.0911 9.72912 15.5772C10.2152 16.0633 10.8055 16.3064 11.5 16.3064ZM11.5 8.80638C11.7361 8.80638 11.9341 8.72638 12.0941 8.56638C12.2541 8.40638 12.3338 8.2086 12.3333 7.97304C12.3333 7.73693 12.2533 7.53888 12.0933 7.37888C11.9333 7.21888 11.7355 7.13916 11.5 7.13971C11.2638 7.13971 11.0658 7.21971 10.9058 7.37971C10.7458 7.53971 10.6661 7.73749 10.6666 7.97304C10.6666 8.20916 10.7466 8.40721 10.9066 8.56721C11.0666 8.72721 11.2644 8.80693 11.5 8.80638Z" fill="#171E1D"/>
</svg>
