<svg width="21" height="21" viewBox="0 0 21 21" fill="none" xmlns="http://www.w3.org/2000/svg">
<path d="M3.66669 11.973C3.66669 11.0702 3.86808 10.1777 4.27085 9.29552C4.67363 8.4133 5.18058 7.56969 5.79169 6.76469C6.4028 5.95913 7.06613 5.20219 7.78169 4.49386C8.49724 3.78552 9.1603 3.16052 9.77085 2.61886C9.85419 2.54941 9.94447 2.49747 10.0417 2.46302C10.1389 2.42858 10.2361 2.41108 10.3334 2.41052C10.4445 2.41052 10.545 2.42802 10.635 2.46302C10.725 2.49802 10.805 2.54997 10.875 2.61886C11.9584 3.57719 13.0384 4.64663 14.115 5.82719C15.1917 7.00775 15.9936 8.28552 16.5209 9.66052H14.7084C14.3195 8.86886 13.7639 8.03191 13.0417 7.14969C12.3195 6.26747 11.4167 5.33358 10.3334 4.34802C8.68058 5.86191 7.43419 7.25775 6.59419 8.53552C5.75419 9.8133 5.33391 10.9591 5.33335 11.973C5.33335 13.4591 5.80558 14.6919 6.75002 15.6714C7.69447 16.6508 8.88891 17.1402 10.3334 17.1397V18.8064C8.43058 18.8064 6.84363 18.1536 5.57252 16.848C4.30141 15.5425 3.66613 13.9175 3.66669 11.973ZM13.2292 18.9522C13.0764 19.0216 12.92 19.0252 12.76 18.963C12.6 18.9008 12.4856 18.793 12.4167 18.6397L12.3125 18.4105C12.2014 18.1744 12.1214 17.928 12.0725 17.6714C12.0236 17.4147 11.9995 17.1541 12 16.8897C12 16.5841 12.0347 16.2822 12.1042 15.9839C12.1736 15.6855 12.2778 15.3972 12.4167 15.1189C12.5278 14.8827 12.625 14.6433 12.7084 14.4005C12.7917 14.1577 12.8334 13.9041 12.8334 13.6397C12.8334 13.4314 12.8089 13.23 12.76 13.0355C12.7111 12.8411 12.6453 12.6466 12.5625 12.4522L12.5417 12.4105C12.4722 12.2577 12.4686 12.098 12.5309 11.9314C12.5931 11.7647 12.7009 11.6466 12.8542 11.5772C13.007 11.5077 13.1631 11.5044 13.3225 11.5672C13.482 11.63 13.5967 11.7375 13.6667 11.8897L13.7709 12.0772C13.882 12.3133 13.962 12.5633 14.0109 12.8272C14.0597 13.0911 14.0839 13.3619 14.0834 13.6397C14.0834 13.9452 14.0486 14.2439 13.9792 14.5355C13.9097 14.8272 13.8056 15.1119 13.6667 15.3897C13.5556 15.6258 13.4584 15.8689 13.375 16.1189C13.2917 16.3689 13.25 16.6258 13.25 16.8897C13.25 17.0841 13.2709 17.2752 13.3125 17.463C13.3542 17.6508 13.4167 17.8347 13.5 18.0147L13.5417 18.1189C13.6111 18.2716 13.6147 18.4314 13.5525 18.598C13.4903 18.7647 13.3825 18.8827 13.2292 18.9522ZM15.7292 18.9522C15.5764 19.0216 15.42 19.0252 15.26 18.963C15.1 18.9008 14.9856 18.793 14.9167 18.6397L14.8125 18.4105C14.7014 18.1744 14.6214 17.928 14.5725 17.6714C14.5236 17.4147 14.4995 17.1541 14.5 16.8897C14.5 16.5841 14.5347 16.2822 14.6042 15.9839C14.6736 15.6855 14.7778 15.3972 14.9167 15.1189C15.0278 14.8827 15.125 14.6433 15.2084 14.4005C15.2917 14.1577 15.3334 13.9041 15.3334 13.6397C15.3334 13.4314 15.3089 13.23 15.26 13.0355C15.2111 12.8411 15.1453 12.6466 15.0625 12.4522L15.0417 12.4105C14.9722 12.2577 14.9689 12.098 15.0317 11.9314C15.0945 11.7647 15.202 11.6466 15.3542 11.5772C15.507 11.5077 15.6634 11.5044 15.8234 11.5672C15.9834 11.63 16.0978 11.7375 16.1667 11.8897L16.2709 12.0772C16.382 12.3272 16.462 12.5808 16.5109 12.838C16.5597 13.0952 16.5839 13.3625 16.5834 13.6397C16.5834 13.9452 16.5486 14.2439 16.4792 14.5355C16.4097 14.8272 16.3056 15.1119 16.1667 15.3897C16.0556 15.6258 15.9584 15.8689 15.875 16.1189C15.7917 16.3689 15.75 16.6258 15.75 16.8897C15.75 17.0841 15.7709 17.2752 15.8125 17.463C15.8542 17.6508 15.9167 17.8347 16 18.0147L16.0417 18.1189C16.1111 18.2716 16.1147 18.4314 16.0525 18.598C15.9903 18.7647 15.8825 18.8827 15.7292 18.9522ZM17.8542 11.5772C18.007 11.5077 18.1634 11.5044 18.3234 11.5672C18.4834 11.63 18.5978 11.7375 18.6667 11.8897L18.7709 12.0772C18.882 12.3133 18.962 12.5633 19.0109 12.8272C19.0597 13.0911 19.0839 13.3619 19.0834 13.6397C19.0834 13.9452 19.0486 14.2475 18.9792 14.5464C18.9097 14.8452 18.8056 15.133 18.6667 15.4097C18.5556 15.6458 18.4584 15.8855 18.375 16.1289C18.2917 16.3722 18.25 16.6255 18.25 16.8889C18.25 17.0833 18.2709 17.2744 18.3125 17.4622C18.3542 17.65 18.4167 17.8339 18.5 18.0139L18.5417 18.118C18.5834 18.2014 18.6042 18.2847 18.6042 18.368C18.6042 18.4514 18.5903 18.5277 18.5625 18.5972C18.5347 18.6666 18.4931 18.7327 18.4375 18.7955C18.382 18.8583 18.3125 18.9102 18.2292 18.9514C18.0764 19.0208 17.92 19.0244 17.76 18.9622C17.6 18.9 17.4856 18.7925 17.4167 18.6397L17.3125 18.4105C17.2014 18.1744 17.1214 17.928 17.0725 17.6714C17.0236 17.4147 16.9995 17.1541 17 16.8897C17 16.5841 17.0347 16.2822 17.1042 15.9839C17.1736 15.6855 17.2778 15.3972 17.4167 15.1189C17.5278 14.8827 17.625 14.6433 17.7084 14.4005C17.7917 14.1577 17.8334 13.9041 17.8334 13.6397C17.8334 13.4314 17.8089 13.23 17.76 13.0355C17.7111 12.8411 17.6453 12.6466 17.5625 12.4522L17.5417 12.4105C17.4722 12.2577 17.4689 12.098 17.5317 11.9314C17.5945 11.7647 17.702 11.6466 17.8542 11.5772Z" fill="#171E1D"/>
</svg>
