<svg width="21" height="21" viewBox="0 0 21 21" fill="none" xmlns="http://www.w3.org/2000/svg">
<path d="M5.66662 12.1397H7.33329L9.83329 14.6397H8.16662L5.66662 12.1397ZM3.99996 3.80638H4.83329V2.97304C4.83329 2.75203 4.92109 2.54007 5.07737 2.38379C5.23365 2.22751 5.44561 2.13971 5.66662 2.13971H8.99996C9.22097 2.13971 9.43293 2.22751 9.58921 2.38379C9.74549 2.54007 9.83329 2.75203 9.83329 2.97304V3.80638H11.5V2.97304C11.5 2.75203 11.5878 2.54007 11.744 2.38379C11.9003 2.22751 12.1123 2.13971 12.3333 2.13971H15.6666C15.8876 2.13971 16.0996 2.22751 16.2559 2.38379C16.4122 2.54007 16.5 2.75203 16.5 2.97304V3.80638H17.3333C17.7753 3.80638 18.1992 3.98197 18.5118 4.29453C18.8244 4.60709 19 5.03102 19 5.47304V16.3064C19 16.7484 18.8244 17.1723 18.5118 17.4849C18.1992 17.7974 17.7753 17.973 17.3333 17.973V18.8064H14.8333V17.973H6.49996V18.8064H3.99996V17.973C3.55793 17.973 3.13401 17.7974 2.82145 17.4849C2.50888 17.1723 2.33329 16.7484 2.33329 16.3064V5.47304C2.33329 5.03102 2.50888 4.60709 2.82145 4.29453C3.13401 3.98197 3.55793 3.80638 3.99996 3.80638ZM15.6666 6.30638C15.8876 6.30638 16.0996 6.39417 16.2559 6.55045C16.4122 6.70673 16.5 6.9187 16.5 7.13971C16.5 7.36072 16.4122 7.57268 16.2559 7.72896C16.0996 7.88525 15.8876 7.97304 15.6666 7.97304C15.4456 7.97304 15.2336 7.88525 15.0774 7.72896C14.9211 7.57268 14.8333 7.36072 14.8333 7.13971C14.8333 6.9187 14.9211 6.70673 15.0774 6.55045C15.2336 6.39417 15.4456 6.30638 15.6666 6.30638ZM12.3333 6.30638C12.5543 6.30638 12.7663 6.39417 12.9225 6.55045C13.0788 6.70673 13.1666 6.9187 13.1666 7.13971C13.1666 7.36072 13.0788 7.57268 12.9225 7.72896C12.7663 7.88525 12.5543 7.97304 12.3333 7.97304C12.1123 7.97304 11.9003 7.88525 11.744 7.72896C11.5878 7.57268 11.5 7.36072 11.5 7.13971C11.5 6.9187 11.5878 6.70673 11.744 6.55045C11.9003 6.39417 12.1123 6.30638 12.3333 6.30638ZM17.3333 5.47304H3.99996V8.80638H17.3333V5.47304ZM3.99996 16.3064H17.3333V10.473H3.99996V16.3064ZM5.66662 6.30638C5.88764 6.30638 6.0996 6.39417 6.25588 6.55045C6.41216 6.70673 6.49996 6.9187 6.49996 7.13971C6.49996 7.36072 6.41216 7.57268 6.25588 7.72896C6.0996 7.88525 5.88764 7.97304 5.66662 7.97304C5.44561 7.97304 5.23365 7.88525 5.07737 7.72896C4.92109 7.57268 4.83329 7.36072 4.83329 7.13971C4.83329 6.9187 4.92109 6.70673 5.07737 6.55045C5.23365 6.39417 5.44561 6.30638 5.66662 6.30638ZM11.5 12.1397H13.1666L15.6666 14.6397H14L11.5 12.1397Z" fill="#171E1D"/>
</svg>
