<svg width="21" height="21" viewBox="0 0 21 21" fill="none" xmlns="http://www.w3.org/2000/svg">
<g clip-path="url(#clip0_1_878)">
<path d="M19.0833 9.22302H18.2396L16.0693 4.34021C15.9711 4.11929 15.8109 3.9316 15.6082 3.79987C15.4054 3.66814 15.1689 3.59803 14.9271 3.59802H5.73959C5.49783 3.59803 5.26125 3.66814 5.05852 3.79987C4.8558 3.9316 4.69562 4.11929 4.59741 4.34021L2.42709 9.22302H1.58334C1.41758 9.22302 1.25861 9.28887 1.1414 9.40608C1.02419 9.52329 0.958344 9.68226 0.958344 9.84802C0.958344 10.0138 1.02419 10.1728 1.1414 10.29C1.25861 10.4072 1.41758 10.473 1.58334 10.473H2.20834V16.723C2.20834 17.0545 2.34004 17.3725 2.57446 17.6069C2.80888 17.8413 3.12682 17.973 3.45834 17.973H5.33334C5.66486 17.973 5.98281 17.8413 6.21723 17.6069C6.45165 17.3725 6.58334 17.0545 6.58334 16.723V15.473H14.0833V16.723C14.0833 17.0545 14.215 17.3725 14.4495 17.6069C14.6839 17.8413 15.0018 17.973 15.3333 17.973H17.2083C17.5399 17.973 17.8578 17.8413 18.0922 17.6069C18.3266 17.3725 18.4583 17.0545 18.4583 16.723V10.473H19.0833C19.2491 10.473 19.4081 10.4072 19.5253 10.29C19.6425 10.1728 19.7083 10.0138 19.7083 9.84802C19.7083 9.68226 19.6425 9.52329 19.5253 9.40608C19.4081 9.28887 19.2491 9.22302 19.0833 9.22302ZM5.73959 4.84802H14.9271L16.8716 9.22302H3.79506L5.73959 4.84802ZM5.33334 16.723H3.45834V15.473H5.33334V16.723ZM15.3333 16.723V15.473H17.2083V16.723H15.3333ZM17.2083 14.223H3.45834V10.473H17.2083V14.223ZM4.70834 12.348C4.70834 12.1823 4.77419 12.0233 4.8914 11.9061C5.00861 11.7889 5.16758 11.723 5.33334 11.723H6.58334C6.7491 11.723 6.90807 11.7889 7.02529 11.9061C7.1425 12.0233 7.20834 12.1823 7.20834 12.348C7.20834 12.5138 7.1425 12.6728 7.02529 12.79C6.90807 12.9072 6.7491 12.973 6.58334 12.973H5.33334C5.16758 12.973 5.00861 12.9072 4.8914 12.79C4.77419 12.6728 4.70834 12.5138 4.70834 12.348ZM13.4583 12.348C13.4583 12.1823 13.5242 12.0233 13.6414 11.9061C13.7586 11.7889 13.9176 11.723 14.0833 11.723H15.3333C15.4991 11.723 15.6581 11.7889 15.7753 11.9061C15.8925 12.0233 15.9583 12.1823 15.9583 12.348C15.9583 12.5138 15.8925 12.6728 15.7753 12.79C15.6581 12.9072 15.4991 12.973 15.3333 12.973H14.0833C13.9176 12.973 13.7586 12.9072 13.6414 12.79C13.5242 12.6728 13.4583 12.5138 13.4583 12.348Z" fill="black"/>
</g>
<defs>
<clipPath id="clip0_1_878">
<rect width="20" height="20" fill="white" transform="translate(0.333344 0.473022)"/>
</clipPath>
</defs>
</svg>
