<svg width="21" height="21" viewBox="0 0 21 21" fill="none" xmlns="http://www.w3.org/2000/svg">
<g clip-path="url(#clip0_1_895)">
<path d="M17.7213 4.2496L12.9807 2.82773L15.3244 1.65585C15.4725 1.58126 15.5848 1.45091 15.6368 1.29349C15.6887 1.13606 15.676 0.964444 15.6014 0.8164C15.5268 0.668355 15.3965 0.556005 15.239 0.504067C15.0816 0.452128 14.91 0.464854 14.7619 0.539447L11.1354 2.35195C9.50552 2.39429 7.95658 3.07123 6.8184 4.2386C5.68021 5.40597 5.0427 6.97154 5.04163 8.60195V16.723C5.04163 16.8888 5.10747 17.0478 5.22468 17.165C5.34189 17.2822 5.50087 17.348 5.66663 17.348C5.83239 17.348 5.99136 17.2822 6.10857 17.165C6.22578 17.0478 6.29163 16.8888 6.29163 16.723V14.223H7.54163V18.598C7.54163 18.9296 7.67332 19.2475 7.90774 19.4819C8.14216 19.7163 8.46011 19.848 8.79163 19.848H13.7916C14.1231 19.848 14.4411 19.7163 14.6755 19.4819C14.9099 19.2475 15.0416 18.9296 15.0416 18.598V8.59804C15.0404 7.71225 14.7261 6.85541 14.1542 6.17893C13.5824 5.50245 12.7898 5.04987 11.9166 4.90117V3.81288L17.3619 5.44648C17.4411 5.47227 17.5247 5.48198 17.6077 5.47502C17.6907 5.46807 17.7715 5.44459 17.8453 5.40597C17.9191 5.36735 17.9844 5.31437 18.0375 5.25014C18.0905 5.1859 18.1301 5.11172 18.1541 5.03194C18.1781 4.95217 18.1858 4.86841 18.1769 4.78558C18.1681 4.70276 18.1427 4.62255 18.1024 4.54967C18.0621 4.47678 18.0076 4.41269 17.9422 4.36116C17.8767 4.30963 17.8016 4.2717 17.7213 4.2496ZM6.29163 12.973V8.59804C6.29314 7.38077 6.73818 6.20577 7.54346 5.29293C8.34873 4.3801 9.45905 3.79199 10.6666 3.63867V4.90117C9.79341 5.04987 9.00086 5.50245 8.42902 6.17893C7.85719 6.85541 7.54287 7.71225 7.54163 8.59804V12.973H6.29163ZM13.7916 18.598H8.79163V14.223H13.7916V18.598ZM13.7916 8.59804V12.973H8.79163V8.59804C8.79163 7.935 9.05502 7.29911 9.52386 6.83027C9.9927 6.36143 10.6286 6.09804 11.2916 6.09804C11.9547 6.09804 12.5906 6.36143 13.0594 6.83027C13.5282 7.29911 13.7916 7.935 13.7916 8.59804Z" fill="#171E1D"/>
</g>
<defs>
<clipPath id="clip0_1_895">
<rect width="20" height="20" fill="white" transform="translate(0.666626 0.473022)"/>
</clipPath>
</defs>
</svg>
