<svg width="41" height="41" viewBox="0 0 41 41" fill="none" xmlns="http://www.w3.org/2000/svg">
<circle cx="31.751" cy="14.946" r="9" fill="#FAC50A"/>
<path d="M37.3256 17.9484C35.6681 16.5366 33.5134 15.6331 31.193 15.6331C29.867 15.6331 28.5963 15.9155 27.3808 16.4237L26.9941 16.5931L26.8283 16.1978C26.3311 15.0684 25.6129 14.1084 24.7289 13.2613C24.3421 12.9225 23.9554 12.6402 23.5687 12.3578C22.7952 11.8496 21.9112 11.4543 21.0272 11.2284C20.309 11.059 19.5908 10.946 18.8173 10.946C14.4526 10.946 10.751 14.1084 10.0327 18.5131L9.9775 18.9649L9.53551 18.9084C9.14877 18.8519 8.70678 18.7955 8.26479 18.7955C4.12114 18.7955 0.750977 22.2402 0.750977 26.4755C0.750977 28.8472 1.8007 31.0496 3.6239 32.5178L3.67915 32.5743C5.22611 34.099 7.21507 34.946 9.36976 34.946H31.3035C33.1267 34.946 34.9499 34.3813 36.4968 33.3649C39.1488 31.5578 40.751 28.5649 40.751 25.2896C40.6957 22.3531 39.3698 19.7555 37.3256 17.9484Z" fill="#F4F4F4"/>
</svg>
