<svg width="48" height="48" viewBox="0 0 48 48" fill="none" xmlns="http://www.w3.org/2000/svg">
<circle cx="37.1761" cy="17.396" r="10.575" fill="#FAC50A"/>
<path d="M43.7261 20.9238C41.7786 19.265 39.2468 18.2033 36.5203 18.2033C34.9623 18.2033 33.4692 18.5351 32.041 19.1323L31.5866 19.3313L31.3919 18.8669C30.8076 17.5398 29.9637 16.4118 28.925 15.4165C28.4706 15.0184 28.0162 14.6866 27.5618 14.3549C26.6529 13.7577 25.6142 13.2932 24.5756 13.0278C23.7316 12.8288 22.8877 12.696 21.9789 12.696C16.8504 12.696 12.501 16.4118 11.6571 21.5873L11.5921 22.1182L11.0728 22.0518C10.6184 21.9855 10.099 21.9191 9.57971 21.9191C4.71092 21.9191 0.750977 25.9666 0.750977 30.9431C0.750977 33.7299 1.9844 36.3177 4.12667 38.0429L4.19158 38.1092C6.00926 39.9007 8.34628 40.896 10.878 40.896H36.6501C38.7924 40.896 40.9347 40.2325 42.7524 39.0382C45.8684 36.9149 47.751 33.3982 47.751 29.5497C47.6861 26.0993 46.128 23.0471 43.7261 20.9238Z" fill="#F4F4F4"/>
</svg>
