<svg width="17" height="17" viewBox="0 0 17 17" fill="none" xmlns="http://www.w3.org/2000/svg">
<path fill-rule="evenodd" clip-rule="evenodd" d="M8.65099 0.882406C8.59501 0.755422 8.50545 0.647878 8.39292 0.5725C8.28038 0.497121 8.14957 0.457062 8.01596 0.457062C7.88236 0.457062 7.75154 0.497121 7.63901 0.5725C7.52647 0.647878 7.43691 0.755422 7.38094 0.882406L5.37375 5.43577L0.61736 6.02654C0.484655 6.04294 0.359217 6.09879 0.255891 6.18749C0.152566 6.27618 0.0756776 6.394 0.0343273 6.52701C-0.00702307 6.66002 -0.0111048 6.80264 0.0225652 6.938C0.0562352 7.07336 0.126247 7.19578 0.224316 7.29079L3.74213 10.6948L2.80848 15.6142C2.78254 15.7514 2.79466 15.8934 2.84341 16.0236C2.89215 16.1537 2.97547 16.2665 3.08353 16.3487C3.19158 16.4308 3.31985 16.4789 3.45317 16.4871C3.58649 16.4954 3.71928 16.4636 3.83585 16.3953L8.01596 13.9459L12.1961 16.3953C12.3127 16.4638 12.4457 16.4959 12.5792 16.4877C12.7127 16.4796 12.8412 16.4315 12.9494 16.3492C13.0576 16.2669 13.141 16.1538 13.1897 16.0235C13.2384 15.8931 13.2504 15.7508 13.2241 15.6135L12.2905 10.6956L15.8076 7.29079C15.9057 7.19578 15.9757 7.07336 16.0094 6.938C16.043 6.80264 16.0389 6.66002 15.9976 6.52701C15.9562 6.394 15.8794 6.27618 15.776 6.18749C15.6727 6.09879 15.5473 6.04294 15.4146 6.02654L10.6575 5.43504L8.65099 0.882406Z" fill="#FAC50A"/>
</svg>
