<svg width="36" height="29" viewBox="0 0 36 29" fill="none" xmlns="http://www.w3.org/2000/svg">
<path d="M21.7208 3.90988C21.7208 3.44296 21.5353 2.99516 21.2051 2.665C20.8749 2.33484 20.4272 2.14935 19.9602 2.14935H16.4392C15.9723 2.14935 15.5245 2.33484 15.1943 2.665C14.8641 2.99516 14.6787 3.44296 14.6787 3.90988V14.473C14.6787 14.9399 14.8641 15.3877 15.1943 15.7179C15.5245 16.0481 15.9723 16.2336 16.4392 16.2336H19.9602C20.4272 16.2336 20.8749 16.0481 21.2051 15.7179C21.5353 15.3877 21.7208 14.9399 21.7208 14.473V10.952C21.7208 10.4851 21.5353 10.0373 21.2051 9.7071C20.8749 9.37694 20.4272 9.19145 19.9602 9.19145H14.6787M2.35498 2.14935H6.75629C7.45667 2.14935 8.12837 2.42758 8.62361 2.92282C9.11886 3.41807 9.39708 4.08976 9.39708 4.79014V6.55067C9.39708 7.25105 9.11886 7.92274 8.62361 8.41798C8.12837 8.91323 7.45667 9.19145 6.75629 9.19145M6.75629 9.19145H4.11551M6.75629 9.19145C7.45667 9.19145 8.12837 9.46968 8.62361 9.96492C9.11886 10.4602 9.39708 11.1319 9.39708 11.8322V13.5928C9.39708 14.2931 9.11886 14.9648 8.62361 15.4601C8.12837 15.9553 7.45667 16.2336 6.75629 16.2336H2.35498M2.35498 21.5151C2.35498 24.4323 9.4499 26.7967 18.1997 26.7967C26.9495 26.7967 34.0444 24.4323 34.0444 21.5151M27.0023 5.6704V12.7125C27.0023 13.6463 27.3733 14.5419 28.0336 15.2023C28.694 15.8626 29.5895 16.2336 30.5234 16.2336C31.4572 16.2336 32.3528 15.8626 33.0131 15.2023C33.6735 14.5419 34.0444 13.6463 34.0444 12.7125V5.6704C34.0444 4.73656 33.6735 3.84097 33.0131 3.18064C32.3528 2.52032 31.4572 2.14935 30.5234 2.14935C29.5895 2.14935 28.694 2.52032 28.0336 3.18064C27.3733 3.84097 27.0023 4.73656 27.0023 5.6704Z" stroke="white" stroke-width="3.52105" stroke-linecap="round" stroke-linejoin="round"/>
</svg>
