<svg width="13" height="20" viewBox="0 0 13 20" fill="none" xmlns="http://www.w3.org/2000/svg">
<path d="M9.82925 5.66719C9.67639 6.46763 8.90359 6.9926 8.10316 6.83974C7.30272 6.68688 6.77776 5.91408 6.93062 5.11364C7.08348 4.3132 7.85627 3.78824 8.65671 3.9411C9.45715 4.09396 9.98211 4.86676 9.82925 5.66719Z" fill="#00C29F"/>
<path d="M3.76027 18.9018C1.41727 18.084 0.17214 15.5195 0.998966 13.1506C1.22383 12.5064 1.36365 12.1346 1.57951 11.4873C1.69796 11.1266 2.65952 9.50724 3.30949 9.06521C4.35217 8.3561 4.74441 8.29291 5.75289 8.12302C6.96736 7.91844 8.45006 8.43359 9.52614 7.97549C10.2641 7.66288 10.84 7.04756 11.1055 6.28697C11.1308 6.21445 11.152 6.14596 11.1697 6.07764C11.1823 6.0321 11.193 5.98592 11.2031 5.93954C11.2134 5.89255 11.2225 5.84513 11.2302 5.79791C11.2479 5.68717 11.2593 5.57698 11.2642 5.46998C11.3069 4.52022 10.8786 3.62005 10.1189 3.06295C10.0339 3.00046 9.94197 2.94034 9.84468 2.88587C9.80344 2.86258 9.76117 2.84031 9.71848 2.81926C9.67639 2.79841 9.63409 2.77818 9.59055 2.75956C9.52676 2.73115 9.4607 2.70536 9.38958 2.68053C9.31845 2.6557 9.25009 2.63458 9.18247 2.61713C9.1374 2.60482 9.0917 2.59434 9.04578 2.58446C8.99926 2.57438 8.95231 2.56551 8.90555 2.55808C8.87027 2.5526 8.83477 2.54773 8.80049 2.54329C8.7662 2.53884 8.73149 2.53561 8.69777 2.53341C8.66426 2.53061 8.63135 2.52801 8.59841 2.52745C8.53055 2.52428 8.4679 2.5236 8.40702 2.5256C7.45028 2.54855 6.54725 3.07635 6.05181 3.90297L6.05074 3.90602L6.04908 3.90886C6.03723 3.92728 6.02369 3.95059 6.00951 3.97572C5.98614 4.01747 5.96377 4.06026 5.94261 4.10346C5.92165 4.14606 5.9013 4.18887 5.88255 4.23291C5.87581 4.24834 5.86929 4.26315 5.86316 4.27879C5.63305 4.55057 5.25505 4.65519 4.92171 4.53885C4.51966 4.39852 4.28357 3.98999 4.35942 3.56729C4.42118 3.42134 4.49202 3.27651 4.56882 3.13786L4.57463 3.12895C5.65173 1.20156 7.93134 0.3256 9.99284 1.04514C11.1237 1.43983 12.0328 2.26035 12.5535 3.35482C13.0749 4.44951 13.1418 5.68164 12.7428 6.82495L9.50951 16.0885C8.68269 18.4574 6.10328 19.7196 3.76027 18.9018Z" fill="#00C29F"/>
</svg>
