<svg width="10" height="12" viewBox="0 0 10 12" fill="none" xmlns="http://www.w3.org/2000/svg">
<path fill-rule="evenodd" clip-rule="evenodd" d="M7.92825 2.33677C7.05728 1.46581 5.876 0.976501 4.64426 0.976501C3.41253 0.976501 2.23124 1.46581 1.36027 2.33677C0.489305 3.20774 9.17714e-09 4.38903 0 5.62076C-9.17714e-09 6.8525 0.489305 8.03379 1.36027 8.90475L4.2702 11.8147C4.36942 11.9139 4.50397 11.9696 4.64426 11.9696C4.78455 11.9696 4.9191 11.9139 5.01832 11.8147L7.92825 8.90475C8.35951 8.4735 8.70161 7.96152 8.93501 7.39805C9.1684 6.83458 9.28853 6.23066 9.28853 5.62076C9.28853 5.01087 9.1684 4.40695 8.93501 3.84348C8.70161 3.28001 8.35951 2.76803 7.92825 2.33677ZM3.85064 5.62076C3.85064 5.41028 3.93426 5.20842 4.08309 5.05959C4.23192 4.91076 4.43378 4.82715 4.64426 4.82715H4.64955C4.86003 4.82715 5.06189 4.91076 5.21073 5.05959C5.35956 5.20842 5.44317 5.41028 5.44317 5.62076V5.62605C5.44317 5.83654 5.35956 6.03839 5.21073 6.18723C5.06189 6.33606 4.86003 6.41967 4.64955 6.41967H4.64426C4.43378 6.41967 4.23192 6.33606 4.08309 6.18723C3.93426 6.03839 3.85064 5.83654 3.85064 5.62605V5.62076Z" fill="#787878"/>
</svg>
